HIERARCHY
ROOT Hips
{
	OFFSET 0.000000 0.000000 0.000000
	CHANNELS 6 Xposition Yposition Zposition Zrotation Yrotation Xrotation 
	JOINT LHipJoint
	{
		OFFSET 0.000000 0.000000 0.000000
		CHANNELS 3 Zrotation Yrotation Xrotation
		JOINT LeftUpLeg
		{
			OFFSET 8.178360 -10.767780 5.035740
			CHANNELS 3 Zrotation Yrotation Xrotation
			JOINT LeftLeg
			{
				OFFSET 14.688660 -40.356780 0.000000
				CHANNELS 3 Zrotation Yrotation Xrotation
				JOINT LeftFoot
				{
					OFFSET 15.373200 -42.237540 0.000000
					CHANNELS 3 Zrotation Yrotation Xrotation
					JOINT LeftToeBase
					{
						OFFSET 0.945840 -2.598660 13.935300
						CHANNELS 3 Zrotation Yrotation Xrotation
						End Site
						{
							OFFSET 0.000000 0.000000 0.000000
						}
					}
				}
			}
		}
	}
	JOINT RHipJoint
	{
		OFFSET 0.000000 0.000000 0.000000
		CHANNELS 3 Zrotation Yrotation Xrotation
		JOINT RightUpLeg
		{
			OFFSET -7.833120 -10.767780 5.035740
			CHANNELS 3 Zrotation Yrotation Xrotation
			JOINT RightLeg
			{
				OFFSET -15.255180 -41.913300 0.000000
				CHANNELS 3 Zrotation Yrotation Xrotation
				JOINT RightFoot
				{
					OFFSET -15.409560 -42.337380 0.000000
					CHANNELS 3 Zrotation Yrotation Xrotation
					JOINT RightToeBase
					{
						OFFSET -0.988380 -2.715540 14.178900
						CHANNELS 3 Zrotation Yrotation Xrotation
						End Site
						{
							OFFSET 0.000000 0.000000 0.000000
						}
					}
				}
			}
		}
	}
	JOINT LowerBack
	{
		OFFSET 0.000000 0.000000 0.000000
		CHANNELS 3 Zrotation Yrotation Xrotation
		JOINT Spine
		{
			OFFSET 0.169620 12.213540 -1.160280
			CHANNELS 3 Zrotation Yrotation Xrotation
			JOINT Spine1
			{
				OFFSET 0.340320 12.293100 -0.256500
				CHANNELS 3 Zrotation Yrotation Xrotation
				JOINT Neck
				{
					OFFSET 0.000000 0.000000 0.000000
					CHANNELS 3 Zrotation Yrotation Xrotation
					JOINT Neck1
					{
						OFFSET -0.325020 10.477440 1.032120
						CHANNELS 3 Zrotation Yrotation Xrotation
						JOINT Head
						{
							OFFSET 0.624420 10.568160 -0.743820
							CHANNELS 3 Zrotation Yrotation Xrotation
							End Site
							{
								OFFSET 0.000000 0.000000 0.000000
							}
						}
					}
				}
				JOINT LeftShoulder
				{
					OFFSET 0.000000 0.000000 0.000000
					CHANNELS 3 Zrotation Yrotation Xrotation
					JOINT LeftArm
					{
						OFFSET 20.174460 7.205340 -1.867260
						CHANNELS 3 Zrotation Yrotation Xrotation
						JOINT LeftForeArm
						{
							OFFSET 29.898000 -0.000000 -0.000000
							CHANNELS 3 Zrotation Yrotation Xrotation
							JOINT LeftHand
							{
								OFFSET 20.901360 -0.000000 -0.000000
								CHANNELS 3 Zrotation Yrotation Xrotation
								JOINT LeftFingerBase
								{
									OFFSET 0.000000 0.000000 0.000000
									CHANNELS 3 Zrotation Yrotation Xrotation
									JOINT LeftHandIndex1
									{
										OFFSET 4.291560 -0.000000 -0.000000
										CHANNELS 3 Zrotation Yrotation Xrotation
										End Site
										{
											OFFSET 0.000000 0.000000 0.000000
										}
									}
								}
								JOINT LThumb
								{
									OFFSET 0.000000 0.000000 0.000000
									CHANNELS 3 Zrotation Yrotation Xrotation
									End Site
									{
										OFFSET 0.000000 0.000000 0.000000
									}
								}
							}
						}
					}
				}
				JOINT RightShoulder
				{
					OFFSET 0.000000 0.000000 0.000000
					CHANNELS 3 Zrotation Yrotation Xrotation
					JOINT RightArm
					{
						OFFSET -18.819600 8.244300 -2.427900
						CHANNELS 3 Zrotation Yrotation Xrotation
						JOINT RightForeArm
						{
							OFFSET -31.451400 -0.000000 -0.000000
							CHANNELS 3 Zrotation Yrotation Xrotation
							JOINT RightHand
							{
								OFFSET -20.665020 -0.000000 -0.000000
								CHANNELS 3 Zrotation Yrotation Xrotation
								JOINT RightFingerBase
								{
									OFFSET 0.000000 0.000000 0.000000
									CHANNELS 3 Zrotation Yrotation Xrotation
									JOINT RightHandIndex1
									{
										OFFSET -3.735180 -0.000000 -0.000000
										CHANNELS 3 Zrotation Yrotation Xrotation
										End Site
										{
											OFFSET 0.000000 0.000000 0.000000
										}
									}
								}
								JOINT RThumb
								{
									OFFSET 0.000000 0.000000 0.000000
									CHANNELS 3 Zrotation Yrotation Xrotation
									End Site
									{
										OFFSET 0.000000 0.000000 0.000000
									}
								}
							}
						}
					}
				}
			}
		}
	}
}
MOTION
Frames:	10
Frame Time:	0.0333333
0.799752 101.667486 -58.229400 -4.040733 -12.710398 22.874731 2.833919 0.050736 -0.549814 -5.870796 -7.913366 -69.205530 21.569795 22.323975 92.717040 -0.470950 4.445524 13.068397 0.678400 -5.266400 -14.670100 -0.679765 -1.919269 1.803928 22.129377 11.619730 -6.892360 -1.896887 -9.852801 30.932315 -0.056311 -2.486308 -5.547138 -2.523200 9.879900 -28.588700 4.191926 4.598525 19.056426 0.412915 6.535790 -1.693360 -2.917067 3.510686 -6.067301 -5.529131 -3.265611 -15.081577 3.324465 -3.038746 -6.220325 3.002600 -1.074600 2.474100 -3.739664 2.707202 -3.595070 -63.217102 30.448312 17.839528 35.665836 -48.387767 -23.692877 -0.488402 -3.099908 -21.739819 17.936546 7.496219 3.609900 -7.125000 0.000000 0.000000 -6.585500 40.723700 0.697900 0.643115 -1.004520 -0.841195 76.677210 37.966511 43.538564 -111.563034 58.917988 -84.511402 2.034035 -0.240423 -21.875926 -16.840382 24.007746 -8.045000 7.125000 0.000000 0.000000 6.632600 -4.139700 6.178800 
0.582096 102.090882 -44.599764 -1.778213 -8.849513 22.802282 2.815204 -0.013581 -1.025450 -3.828490 -13.419054 -73.210385 16.850143 22.518941 80.111217 0.724198 -1.222219 13.086039 0.222600 -3.037300 -8.382500 -0.286422 -2.589047 2.888858 19.667139 7.886656 2.914536 -0.007993 -6.256380 20.593541 -0.064649 -2.318402 10.176885 -2.642600 10.092800 -29.277600 4.234929 4.662786 17.350921 0.134904 6.438065 -1.762021 -3.849869 3.588617 -5.325520 -5.731189 -5.232025 -15.399894 3.663674 -5.500724 -6.268953 2.936600 -2.278700 2.725600 -3.125878 3.180648 -3.336817 -60.376032 36.524433 25.287966 47.878459 -54.666281 -35.201285 -0.311756 -2.706791 -24.154959 15.480024 5.194936 2.287800 -7.125000 0.000000 0.000000 -8.469000 37.749300 1.524800 0.060118 -1.226946 -0.968759 71.143693 37.279566 41.350074 -130.273190 53.023910 -97.425140 2.265664 -0.889602 -23.054227 -22.339257 30.286101 -13.207800 7.125000 0.000000 0.000000 4.288100 4.018400 4.590500 
-0.103500 103.590648 -29.982192 -0.556610 -6.209375 20.777968 2.451175 -0.292003 -1.587606 -6.600965 -13.477835 -67.687642 10.988455 20.988657 64.377570 1.714516 -5.086787 15.082667 0.189800 -2.806100 -7.739400 -0.103350 -3.087072 3.765022 19.443919 9.724860 12.832245 0.894334 -4.114224 14.583207 -1.864695 -1.911520 30.009796 -0.968200 6.264500 -17.553900 2.473322 4.468027 17.604266 0.337548 5.893576 -1.871197 -1.968917 3.366172 -6.223895 -6.864471 -5.838096 -15.076721 4.278789 -6.045395 -5.044784 3.177400 -2.586000 3.373700 -2.788601 3.172101 -3.763707 -64.795768 40.002941 25.604760 54.102305 -57.118630 -40.868490 -0.377265 -2.583585 -21.718193 15.607862 4.987158 2.207500 -7.125000 0.000000 0.000000 -8.391000 37.457200 1.571000 -0.058570 -1.080941 -0.910773 70.853402 27.496933 46.615352 -134.994917 50.926030 -100.477687 1.979991 -1.358081 -11.023917 -23.202138 28.923672 -13.196700 7.125000 0.000000 0.000000 3.613400 2.832400 3.794900 
-0.629766 103.351668 -15.922884 -1.353060 -1.896322 18.707063 2.169099 -0.655066 -1.693100 -9.619093 -11.426356 -61.300431 8.367955 19.469732 57.158489 2.229674 -7.012716 15.819126 0.537500 -4.697500 -13.047800 -0.541174 -2.418259 3.269220 24.907849 8.226972 12.797160 -1.525740 -8.672322 29.081347 -1.912105 2.059577 25.435812 -1.086400 6.624300 -18.606900 4.455926 3.165943 17.670714 0.400673 4.637900 -1.764168 -2.546844 2.728416 -5.763444 -6.570052 -6.336312 -14.801680 5.424466 -6.753708 -4.510013 3.511300 -2.863000 3.604700 -2.837716 3.136960 -3.827602 -69.239286 37.643677 26.073564 60.049187 -58.633924 -45.728352 -0.345546 -2.606768 -22.126595 17.434566 5.905301 2.781700 -7.125000 0.000000 0.000000 -6.982200 38.568800 1.112400 0.045879 -1.012962 -0.838979 73.842168 16.071382 49.553060 -128.228219 54.391050 -95.765314 1.855420 -0.930747 -16.071672 -19.289891 25.910783 -9.833700 7.125000 0.000000 0.000000 5.550200 -1.357600 5.443000 
-1.396896 103.871034 -1.790814 0.081496 0.286587 18.269043 1.660596 -0.779714 -1.366559 -14.531693 -8.566064 -52.784457 7.114350 18.120040 53.452736 2.429239 -7.769730 12.214455 0.271400 -3.350900 -9.257300 -1.129560 -1.744043 2.237042 25.827754 6.017787 2.396266 -8.230757 -15.126201 53.687704 -0.362979 -2.959434 19.339693 -0.177500 2.714000 -7.483500 2.378037 2.503186 16.061231 0.229213 3.374905 -1.624940 -1.698496 2.116175 -4.633452 -6.246168 -6.591919 -13.951746 6.281919 -7.181498 -5.033190 3.714700 -3.015600 3.073400 -3.061171 3.137464 -3.508454 -73.900080 30.906213 28.390186 65.961391 -59.713204 -50.368932 -0.219233 -2.600450 -24.208701 18.987397 7.171960 3.488300 -7.125000 0.000000 0.000000 -5.857000 40.021600 0.721600 0.366258 -1.092670 -0.852665 78.313284 5.305858 48.815885 -110.340570 59.825384 -83.006536 2.073499 -0.659817 -11.622938 -20.010892 25.520402 -10.105400 7.125000 0.000000 0.000000 4.806200 -1.993800 4.652600 
-1.844760 103.349784 11.847606 1.764364 2.441515 17.890733 1.154163 -0.470883 -0.715284 -17.960289 -7.295084 -43.614885 7.619960 17.687381 54.352464 2.712678 -7.882527 1.303736 0.820100 -5.778400 -16.142900 -1.724555 -1.437035 1.472631 24.384179 4.485596 -10.714188 -15.736318 -18.589878 77.129983 0.065472 -3.367598 13.490569 -0.150200 2.497700 -6.883200 0.341725 1.522616 15.463590 0.100609 1.812578 -1.594536 -0.725567 1.298670 -4.324037 -6.271867 -6.644315 -13.897524 7.226134 -7.229525 -4.790959 4.021200 -2.988200 3.143700 -3.381240 2.994607 -2.999759 -78.761023 20.674840 32.770240 70.358245 -60.076966 -53.451444 -0.185580 -2.798402 -23.016132 22.522786 10.410459 5.663700 -7.125000 0.000000 0.000000 -3.214100 44.094900 0.071900 0.773813 -1.031495 -1.268605 82.573769 -4.009083 44.639366 -84.795609 59.686641 -63.909848 2.579603 -0.446749 -7.695843 -20.219715 26.395520 -10.675000 7.125000 0.000000 0.000000 4.385900 -1.351800 4.293900 
-2.352210 102.378792 24.979206 6.293577 4.293697 17.921883 0.478187 -0.030756 0.053052 -22.564258 -8.262387 -33.322627 7.045394 16.620229 52.245103 2.847368 -7.218135 -3.543723 1.062000 -6.551900 -18.394500 -2.085353 -1.292664 1.008629 16.977217 2.421361 -26.820553 -21.904203 -19.728649 95.646543 -0.771234 1.444414 8.783233 -0.023600 0.992800 -2.729000 -5.049924 0.595811 16.329371 -0.009169 -0.273615 -1.799333 2.097096 0.221399 -5.202377 -7.593857 -7.307818 -14.552816 8.818766 -7.722595 -4.499301 4.682900 -3.142300 3.658000 -3.367608 2.908061 -2.400607 -83.910311 9.504516 38.658637 83.237589 -62.481389 -63.958168 -0.109841 -2.337940 -26.512121 20.771558 8.154972 4.098700 -7.125000 0.000000 0.000000 -4.515500 40.967400 0.450100 0.601958 -0.970895 -1.617342 86.233902 -15.958884 35.285736 -82.588226 59.428194 -62.144326 2.784530 -0.371903 -8.980380 -21.826026 27.608411 -12.044500 7.125000 0.000000 0.000000 3.470500 0.200400 3.489100 
-2.241810 101.870088 38.390556 6.552769 5.422327 18.922977 -0.187400 0.402838 0.782159 -22.317519 -7.361686 -23.832491 5.551808 14.989476 47.150291 2.948656 -7.030834 -3.713359 1.674700 -8.152800 -23.179200 -2.402669 -1.141041 0.861378 13.239961 3.395360 -43.366362 -24.484492 -20.323072 103.078337 -1.419985 5.229819 6.853559 -0.090400 1.939400 -5.338300 -4.541370 -0.482741 14.980422 0.232466 -1.481376 -2.132088 2.803538 -0.432156 -5.273412 -7.284814 -6.428397 -15.046747 8.009106 -6.686271 -3.712622 4.284300 -2.734200 3.839400 -2.757422 2.954462 -1.876476 -88.834107 1.916969 45.214870 111.693396 -62.422640 -83.447414 -0.071992 -1.882219 -32.821633 19.717204 10.939955 4.698100 -7.125000 0.000000 0.000000 -5.876300 43.232900 0.257200 0.115151 -1.344796 -1.561119 88.703966 -28.219238 25.261862 -99.449484 61.473673 -75.227779 2.573904 -0.565511 -11.824661 -21.929586 28.604864 -12.447000 7.125000 0.000000 0.000000 3.769900 1.539800 3.878200 
-1.820298 102.494838 53.459748 6.419043 4.253794 18.021295 -1.016661 1.142483 2.135027 -21.691679 -3.692095 -11.826760 2.929047 12.026437 37.980613 2.838528 -7.431418 4.279174 2.103800 -9.079000 -26.042600 -2.407195 -1.101015 0.527376 10.281313 6.050381 -52.440940 -22.698266 -21.311946 97.406827 -1.699037 6.472849 3.035656 -0.836500 5.834400 -16.304800 -3.869652 -2.189331 13.703366 0.511554 -3.486224 -2.241660 3.472797 -1.548568 -4.491707 -6.929303 -4.650741 -16.684557 7.626726 -4.444061 -1.913009 4.231500 -1.658000 4.663000 -2.184448 2.861885 -1.778303 -89.612413 -1.268632 52.947600 137.431972 -52.924390 -100.782075 -0.514393 -1.453346 -37.988452 20.527798 9.486432 4.090000 -7.125000 0.000000 0.000000 -4.616400 40.994600 0.457100 -0.383610 -1.560707 -1.592099 86.432389 -37.949946 25.367081 -117.642436 59.121373 -88.059322 2.091384 -0.810977 -16.109851 -20.660118 28.125337 -11.391700 7.125000 0.000000 0.000000 4.854000 1.099800 4.964000 
-1.746906 103.921842 69.471078 5.460157 1.432220 17.815943 -1.874599 1.972373 3.743402 -20.123876 -1.563288 -1.320218 0.203908 8.037033 26.191952 2.489205 -2.912879 26.666390 2.974300 -10.653400 -31.119700 -2.281610 -1.061912 -0.008047 9.430768 10.359803 -57.347856 -17.454235 -21.733494 82.197725 -1.040623 2.636762 1.388879 -0.787400 5.664800 -15.814800 -2.986944 -2.539326 11.237924 0.858862 -3.718006 -2.444076 4.353654 -1.786562 -3.886198 -7.137993 -3.600864 -17.440394 6.460942 -3.066418 -0.382525 3.883900 -1.122000 5.272800 -1.703020 2.679892 -1.676045 -85.551612 -2.099348 59.924499 151.827703 -42.299744 -109.814379 -0.433929 -0.976039 -42.997695 14.022080 6.620569 1.876600 -7.125000 0.000000 0.000000 -9.975500 37.080400 1.967600 -0.617164 -1.772078 -1.748660 84.215045 -46.845163 25.525595 -129.893248 54.839855 -96.649590 2.057687 -0.769095 -19.014718 -23.565615 25.464498 -11.938900 7.125000 0.000000 0.000000 2.832700 -1.003200 2.786100 
